<?xml version="1.0" encoding="UTF-8" standalone="no"?>
<!DOCTYPE svg PUBLIC "-//W3C//DTD SVG 1.1//EN" "http://www.w3.org/Graphics/SVG/1.1/DTD/svg11.dtd">
<svg width="100%" height="100%" viewBox="0 0 1152 896" version="1.1" xmlns="http://www.w3.org/2000/svg" xmlns:xlink="http://www.w3.org/1999/xlink" xml:space="preserve" xmlns:serif="http://www.serif.com/" style="fill-rule:evenodd;clip-rule:evenodd;stroke-linejoin:round;stroke-miterlimit:2;">
    <g transform="matrix(0.5625,0,0,0.562461,0,0)">
        <path d="M1378.82,726.973C1380.27,726.644 1381,726.768 1382.45,726.991C1383.49,728.336 1384.11,729.237 1385.63,730.082C1389.68,732.333 1412.92,728.776 1417.63,727.243C1422.17,729.273 1426.54,732.002 1431.26,733.543C1436.87,735.376 1443.01,736.29 1448.45,738.528C1452.07,740.016 1454.9,742.858 1458.34,744.562C1461.6,746.177 1465.16,744.34 1468.42,743.39C1471.78,745.879 1474.1,750.595 1476.39,754.082C1475.27,756.639 1474.08,759.172 1473.02,761.753C1471.24,766.056 1470.37,770.828 1472.47,775.21C1476.8,784.199 1503.99,787.526 1513.63,794.625C1518.76,798.4 1519.75,806.57 1526.36,808.491C1530.61,809.725 1531.44,811.358 1533.91,814.729C1538.36,813.789 1543.59,813.067 1547.74,811.294C1551.09,809.859 1555.93,805.3 1559.08,804.659C1561.17,804.234 1563.81,805.118 1565.94,804.606C1571.65,803.232 1568.42,788.005 1571.39,782.824C1575.28,776.049 1582.9,784.296 1588.98,782.578C1591.81,778.669 1588.61,776.135 1589.82,772.725C1590.4,771.114 1597.27,763.478 1599.57,757.711C1603.95,756.306 1608.15,754.307 1612.37,752.475L1620.74,759.766L1623.41,769.025C1625.35,769.752 1627.31,770.443 1629.24,771.204C1632.85,772.625 1635.23,773.985 1636.82,777.634C1637.16,789.695 1632.44,819.698 1628.04,830.713C1626.27,831.714 1624.49,832.424 1622.59,833.145C1621.84,837.87 1627.82,841.926 1626.99,846.724C1626.44,849.97 1625.2,851.024 1622.51,852.623C1620.52,853.802 1619.16,854.754 1617.56,856.404C1616.39,860.505 1617.76,862.611 1618.46,866.751C1617.53,870.492 1614.82,872.588 1612.16,875.191C1612.52,879.181 1612.51,884.294 1613.94,888.024C1618.05,898.686 1631.88,893.866 1636.58,901.812C1639.7,907.095 1638.71,921.084 1636.88,926.795C1636.07,929.324 1634.67,931.179 1632.22,932.29C1624.32,935.877 1611.66,925.865 1603.11,927.387C1598.85,928.145 1594.37,932.486 1589.82,930.522C1586.03,928.882 1584.97,923.802 1583.24,920.378C1581.09,916.108 1577.58,918.439 1573.74,917.306C1571.83,912.844 1574.56,907.944 1574.65,903.296C1574.71,900.442 1573.33,898.89 1571.39,897.018C1567.96,896.386 1565.28,898.635 1562.15,900.136C1551.83,899.208 1545.89,907.662 1536.12,906.237C1535.74,906.182 1535.36,906.112 1534.98,906.049C1531.87,908.673 1533.57,914.462 1531.4,918.068C1528.46,922.962 1521.27,927.477 1519.26,932.617C1515.3,942.78 1520.49,958.679 1517.42,970.261C1517.31,970.652 1517.2,971.039 1517.09,971.428C1519.35,973.366 1521.95,975.656 1524.6,977.059C1530.75,980.317 1537.37,977.958 1543.65,976.398C1546.96,980.526 1550.77,984.053 1550.91,989.538C1549.22,992.669 1546.16,993.509 1543.05,994.87C1541.07,998.894 1538.86,1002.97 1537.22,1007.15C1532.06,1020.29 1548.72,1030.3 1553.87,1042.83L1554.42,1044.2C1550.2,1047.65 1546.3,1051.29 1542.42,1055.11C1534.61,1054.93 1528.14,1055.78 1520.55,1057.71C1521.17,1052.1 1522.93,1046.02 1520.35,1040.67C1518.96,1037.78 1516.77,1036.56 1513.8,1035.68C1511.65,1035.04 1509.82,1034.38 1507.78,1033.43C1505.14,1029.6 1507.59,1026.89 1506.08,1023.44C1505.28,1021.62 1501.75,1018.8 1502.16,1016.61C1502.76,1013.41 1505.04,1013.13 1504.59,1009.13C1500.37,1005.99 1493.33,996.257 1491.62,995.515C1489.93,997.091 1488.48,998.923 1486.08,999.169C1484.63,998.11 1482.98,996.68 1481.25,996.176C1476.44,994.78 1451.11,1009.39 1445.29,1012.93C1441.57,1010.28 1437.53,1007.93 1433.66,1005.49C1430.06,1013.69 1431.66,1021.64 1428.69,1029.54C1424.4,1030.31 1421.78,1028.85 1417.97,1027.11C1414.24,1027.52 1412.45,1029.52 1409.55,1031.73C1402.19,1030.02 1394.45,1028.63 1387.27,1026.28C1378.65,1023.47 1375.18,1012.89 1371.44,1005.34C1369.74,1001.92 1368.08,1000.93 1364.76,999.218L1363.62,998.64C1356.87,984.498 1361.99,965.912 1360.51,950.91C1360.26,948.456 1360.17,947.524 1358.27,946.027C1352.6,947.883 1348.4,957.724 1345.53,962.79C1339.63,957.065 1336.98,953.116 1334.97,945.076C1328.42,945.718 1316.17,945.253 1311.24,950.184C1307.46,953.961 1308.02,960.06 1307.78,965.029C1304.54,967.609 1302.16,969.035 1301.58,973.319C1303.1,977.093 1306.74,979.294 1309.85,981.743C1310,987.691 1308.41,995.904 1309.93,1001.52C1311.09,1005.81 1315.1,1007.82 1314.93,1012.87C1314.74,1018.48 1303.17,1045.92 1300.03,1051.15C1298.8,1053.2 1297.2,1054.78 1295.4,1056.33C1288.73,1062.06 1289.59,1072.45 1283.81,1076.9C1278.11,1076.07 1273.92,1071.27 1270.33,1067.07C1267.37,1063.59 1264.83,1061.7 1260.88,1059.45L1259.51,1058.68C1259.42,1056.95 1259.27,1055.23 1259.17,1053.5C1258.74,1045.57 1253.04,1036.89 1253.12,1030.37C1253.2,1024.87 1256.21,1017.09 1257.2,1011.4C1258.3,1010.35 1259.7,1009.14 1260.39,1007.77C1264,1000.65 1263.53,966.661 1260.73,959.337C1258.02,956.262 1255.16,956.888 1251.74,955.484C1248.3,954.07 1245.86,950.462 1244.67,947.061C1240.93,936.393 1244.13,924.312 1248.57,914.446C1235.17,897.274 1240.57,908.332 1228.59,904.881C1225.89,904.102 1225.82,898.061 1223.05,896.185C1209.86,898.347 1212.59,909.617 1204.28,916.573C1194.65,924.638 1180.28,920.15 1169.41,918.305C1165.46,917.634 1161.37,917.895 1157.39,917.391C1147.37,916.122 1153.04,907.286 1148.07,901.163C1146.98,899.813 1145.45,898.269 1144.73,896.681C1142.91,892.683 1147.34,880.84 1148.93,876.565C1151.05,870.846 1159.85,868.336 1165.11,865.893C1165.9,863.544 1166.62,860.653 1168.05,858.617C1169.35,856.765 1169.88,856.9 1171.97,856.648C1173.52,857.845 1175.02,859.111 1176.88,859.792C1178.29,860.309 1179.46,860.072 1180.76,859.309C1186.77,855.769 1188.24,847.022 1190,840.847C1192.32,832.661 1197.76,830.09 1204.7,826.187L1215.89,833.887C1224.01,831.229 1232.35,829.191 1240.61,827.049C1243.68,821.853 1245.74,816.055 1248,810.482C1249.53,806.728 1250.68,804.016 1254.57,802.371C1259.44,803.573 1260.6,807.632 1264.16,810.647C1269.51,815.186 1276.15,803.43 1280.87,801.454C1283.16,800.498 1285.88,801.262 1288.26,800.845C1291.56,800.266 1297.48,791.498 1299.84,788.674C1322.62,793.718 1336.51,790.404 1358.25,803.532C1367.95,786.66 1368.43,775.152 1383.34,760.417C1381.58,751.407 1368.88,741.831 1369.75,732.649C1371.83,729.39 1375.4,728.424 1378.82,726.973Z" style="fill:rgb(254,254,254);fill-rule:nonzero;"/>
    </g>
    <g transform="matrix(0.5625,0,0,0.562461,0,0)">
        <path d="M797.17,628.219C803.653,628.947 809.969,631.765 816.53,632.313C823.373,632.884 830.867,630.403 837.546,631.905L835.976,633.354L835.357,632.21L834.245,632.394L833.998,634.327L826.403,635.974C817.668,646.036 795.952,659.685 784.143,667.38C784.901,670.355 785.564,672.813 787.193,675.433C791.281,677.766 794.604,679.393 796.045,684.118C796.174,684.541 796.617,686.172 796.794,686.618C797.677,688.846 798.576,689.3 800.714,690.134C806.291,688.627 810.294,684.148 815.246,681.39C817.584,680.088 818.893,679.911 821.429,680.55C822.521,683.457 823.231,684.614 822.761,687.734C819.579,690.733 814.889,689.097 811.424,691.179C808.369,693.015 808.264,698.915 805.424,701.374C803.209,703.291 796.952,702.979 794.016,704.897C792.172,706.101 792.233,706.689 791.861,708.702C792.978,711.399 795.262,713.909 797.671,715.569C800.14,717.269 804.02,715.39 806.676,714.661L808.442,715.782C808.928,718.707 809.043,721.408 811.163,723.639C812.983,724.306 815.164,725.322 817.125,725.185C819.395,725.026 819.676,724.234 821.037,722.611C821.973,719.285 821.575,716.67 821.003,713.351L820.774,712.055C822.074,708.639 828.762,705.967 831.531,703.145C835.088,699.52 835.471,693.091 838.75,689.292C840.155,687.663 841.154,687.837 843.156,687.602C846.861,688.741 848.829,691.054 851.394,693.775C857.437,694.08 864.489,695.393 869.594,691.554C874.575,687.807 876.981,691.171 882.451,690.786C883.187,685.585 870.469,664.922 867.458,659.325C866.691,659.1 865.919,658.886 865.169,658.61C861.937,657.416 856.677,652.574 855.366,649.421C854.467,647.256 855.023,646.545 855.774,644.465C861.468,639.652 871.707,638.695 878.946,638.793C883.563,638.856 890.861,648.226 894.073,651.513C896.601,650.413 899.044,649.189 901.855,649.277C905.773,649.4 911.637,648.919 915.054,650.849C918.151,658.782 932.554,692.057 932.26,698.215C932.089,701.81 929.066,704.299 929.117,708.201C929.25,718.495 931.132,719.896 927.483,730.531C930.381,736.706 933.919,742.644 937.218,748.615L938.102,748.793C941.137,749.428 946.147,749.747 948.239,752.221C949.711,753.963 951.128,756.563 950.824,758.902C949.235,771.12 936.451,774.844 929.696,782.605C927.72,784.876 929.924,788.165 929.948,790.868C929.975,793.992 926.789,796.517 924.719,798.616C926.319,804.708 928.123,810.744 930.125,816.716C931.893,817.872 933.641,819.112 935.452,820.197C945.488,826.207 950.948,836.384 960.688,842.57C965.1,840.436 969.443,838.487 974.365,837.974C986.865,836.672 995.024,842.959 1004.21,850.278C1008.3,847.758 1012.81,845.683 1017.09,843.476C1026.48,847.021 1032.49,845.109 1040.89,852.049C1046.2,847.489 1054.96,839.389 1062.02,838.752C1066.07,838.387 1067.37,840.693 1070.29,842.979C1072.22,844.487 1073.96,844.223 1076.29,843.996C1078.45,843.786 1079.5,843.569 1081.49,844.652C1083.45,853.425 1085.32,862.149 1086.75,871.029C1082.62,877.792 1077.7,870.849 1072.84,873.886C1070.56,878.396 1073.16,882.638 1072.08,887.249C1070.82,892.588 1065.22,897.157 1063.14,902.324C1061.28,906.97 1061.56,913.925 1061.27,918.955C1045.83,929.494 1034.74,936.124 1015.89,938.667C1007.68,935.218 999.672,931.246 991.632,927.406C983.77,925.176 975.971,924.128 967.891,923.15C949.085,932.789 959.72,938.885 948.905,946.676C939.053,953.772 927.984,954.677 917.447,959.811C907.199,964.805 896.984,974.035 887.705,980.765C879.502,975.516 870.564,972.383 861.505,968.982L853.378,980.987C849.933,981.165 844.348,980.856 841.28,982.363C838.937,983.513 838.379,984.802 837.411,987.104C837.961,989.728 838.671,991.981 837.78,994.614C831.597,999.87 824.16,994.895 817.475,994.029C814.295,993.617 810.945,993.699 807.739,993.704C799.701,997.753 789.569,1007.65 780.725,1008.36C778.311,1005.67 779.932,1001.94 777.723,998.621C776.95,998.443 776.487,998.287 775.726,998.26C767.422,997.961 762.167,1009.33 757.075,1014.6L756.115,1014.2C754.752,1009.8 755.095,1005 755.055,1000.42L748.223,993.362C750.409,989.775 751.933,987.478 751.098,983.17C750.585,980.52 750.302,978.066 750.164,975.372C751.759,972.46 753.854,971.607 756.584,969.893L755.928,957.721C766.997,939.95 757.91,941.975 760.104,930.069C761.769,921.035 772.691,920.923 778.298,916.033C782.659,912.231 780.037,902.575 780.71,897.212C781.066,894.376 781.892,892.448 784.144,890.796C787.103,891.667 789.361,892.662 792.35,891.537C794.783,889.221 795.855,887.159 796.817,883.932C802.363,865.328 781.393,868.696 776.119,859.885C773.694,855.834 779.316,850.369 776.095,844.65L775.413,843.463C776.205,834.39 781.715,827.336 783.934,818.945C784.745,815.878 782.201,813.327 780.678,810.759C783.734,810.666 787.705,810.78 790.414,809.12C792.482,807.853 792.968,806.681 793.534,804.436C789.48,782.797 763.613,798.002 752.457,787.922C753.054,784.135 757.38,782.779 758.759,778.88C757.777,775.629 756.277,775.426 753.456,773.68C749.266,766.649 757.629,763.611 758.009,757.777C758.257,753.964 754.194,750.422 751.833,747.794C739.377,752.397 726.728,760.123 712.998,759.929C709.985,759.886 706.977,759.517 704.887,757.118C702.642,754.543 702.752,749.816 703.078,746.61C703.953,738.031 712.035,734.788 717.976,729.874C718.697,705.731 715.229,718.426 704.322,706.698C704.536,705.117 704.642,703.618 704.654,702.023L702.827,700.999C690.007,699.932 673.816,707.088 661.989,711.836C664.469,693 665.86,692.293 679.95,680.462C682.27,681.134 685.689,682.519 688.055,681.913C699.488,678.983 706.145,666.179 711.394,656.775C719.301,657.771 725.613,658.012 733.547,656.674C735.538,649.383 738.214,642.427 740.927,635.386C748.895,636.965 764.878,642.208 772.656,639.79C775.316,638.964 777.939,637.104 780.331,635.698C785.386,632.728 790.293,629.877 796.033,628.485L797.17,628.219Z" style="fill:rgb(254,254,254);fill-rule:nonzero;"/>
    </g>
    <g transform="matrix(0.5625,0,0,0.562461,0,0)">
        <path d="M1075.61,888.827C1080.94,898.913 1071.88,913.52 1075.82,924.83C1078.42,932.312 1084.53,936.115 1091.3,939.2C1088.72,942.375 1085.79,945.308 1082.99,948.296C1079.78,948.804 1074.53,949.26 1071.92,951.162C1068.66,953.546 1068.12,960.784 1067.41,964.588C1060.43,971.206 1051.46,975.653 1044.93,982.241C1043.54,983.637 1043.56,983.585 1043.57,985.501C1044.42,986.211 1045.29,986.921 1046.11,987.669C1048.57,989.905 1049.03,991.04 1049.15,994.367C1047.55,997.145 1045.47,998.118 1042.68,999.583C1032.47,1004.95 1022.61,1024.24 1014.67,1027.12C1014.39,1027.22 1014.1,1027.29 1013.81,1027.38C1009.61,1028.69 1004.85,1027.29 1000.63,1026.48C995.079,1031.47 989.952,1037.02 984.449,1042.11C989.505,1046.62 994.413,1050.91 998.47,1056.37C1002.52,1061.83 1004.9,1067.99 1007.52,1074.21C1006.66,1076.34 1005.82,1078.42 1005.26,1080.65C1003.11,1089.29 995.303,1093.87 991.035,1101.76C989.034,1102.23 987.027,1102.67 985.014,1103.08C979.899,1104.15 974.457,1105.09 971.562,1110C968.704,1114.85 970.784,1121.94 972.116,1127.01C968.437,1133.18 964.554,1139.25 960.762,1145.36C952.657,1145.11 940.951,1143.47 934.738,1149.84C928.778,1155.95 929.153,1167.28 929.102,1175.2C922.252,1173.74 916.02,1173.47 909.064,1174.19C906.644,1172.42 902.141,1168.58 899.087,1168.47C894.004,1168.28 890.333,1173.04 886.931,1176.27C886.306,1171.92 885.506,1167.61 884.711,1163.28C879.67,1161.22 876.908,1158.13 872.49,1155.32C868.009,1152.48 858.348,1155.57 853.396,1156.44C852.335,1154.38 851.224,1151.75 849.756,1149.97C848.041,1147.9 846.872,1147.41 844.313,1147.14C840.74,1149.74 839.706,1155.56 838.337,1159.72C835.091,1160.86 830.23,1159.34 826.86,1158.77C822.816,1162.69 819.684,1167.38 815.361,1171.08C809.366,1176.21 802.103,1178.88 797,1184.96C795.927,1184.08 794.83,1183.22 793.71,1182.4C787.913,1178.18 779.725,1174.44 772.445,1176.06C769.351,1176.75 767.31,1181.03 765.677,1183.56C761.673,1184.72 757.257,1185.24 753.437,1186.91C748.27,1189.17 746.464,1194.25 744.409,1199.05L735.289,1188.96C731.008,1192.66 726.663,1196.29 722.255,1199.84C714.307,1185.08 704.49,1171.62 697.457,1156.26C698.399,1153.77 698.817,1152.47 698.186,1149.85C695.283,1146.29 677.173,1119.75 674.936,1118.75C671.516,1119.32 669.893,1121.69 667.262,1123.62C664.333,1125.77 663.692,1125.64 660.277,1125.16C660.581,1122.24 662.063,1119.37 662.713,1116.47C664.216,1109.76 664.6,1102.97 666.506,1096.31C658.466,1094.65 650.22,1093.64 642.106,1092.38C640.02,1089.62 638.557,1086.25 636.968,1083.18C637.429,1082.31 637.852,1081.42 638.304,1080.54C641.875,1073.6 640.111,1066.92 643.083,1059.98C646.196,1052.71 653.135,1046.84 655.286,1039.21C658.493,1027.84 638.55,1019.43 633.709,1010C632.38,1007.41 631.737,1004.7 632.675,1001.89C641.778,996.964 638.335,994.208 641.913,985.918C642.922,983.579 644.155,982.925 646.411,982.067C651.813,985.877 656.293,992.974 660.375,998.237C660.515,1000.64 660.462,1003.48 661.026,1005.81C662.016,1009.9 665.366,1010.78 668.524,1012.83C671.832,1014.98 672.945,1017.97 673.726,1021.67C674.083,1023.36 674.362,1025.07 675.206,1026.6C678.905,1033.33 683.805,1039.41 687.571,1046.13C692.51,1054.94 695.438,1065.05 701.677,1073.06C707.556,1069.94 717.318,1068.38 721.987,1064.1C725.973,1060.44 743.81,1040.72 745.65,1036.77C747.26,1033.32 747.305,1028.99 747.568,1025.23C753.921,1018.91 755.457,1020.54 761.123,1016.65C764.605,1014.26 765.106,1007.2 769.1,1004.02C777.852,1001.65 774.19,1008.51 780.702,1011.13C790.894,1010.55 800.679,999.823 810.168,995.76C811.412,995.963 812.647,996.192 813.888,996.408C819.683,997.418 824.817,999.266 830.31,1001.34C832.977,1000.15 835.67,998.975 838.274,997.652C841.181,996.176 841.762,994.769 842.731,991.757C842.198,989.75 841.799,988.082 841.876,985.975C845.359,983.811 850.463,984.161 854.487,983.9C856.5,980.518 858.614,975.303 862.784,974.262C870.921,972.231 880.826,980.461 887.451,984.454C898.004,977.548 907.142,967.752 918.472,962.153C924.893,958.98 932.256,957.759 938.885,955.014C944.045,952.878 954.188,947.555 956.476,942.259C957.877,939.017 957.851,935.295 959.369,932.049C960.495,929.642 962.654,928.345 965.127,927.589C980.628,922.847 1002.66,936.232 1016.03,942.964C1028.14,940.02 1058.17,931.251 1062.71,918.263C1067.5,904.555 1064,900.521 1075.61,888.827Z" style="fill:rgb(254,254,254);fill-rule:nonzero;"/>
    </g>
    <g transform="matrix(0.5625,0,0,0.562461,0,0)">
        <path d="M654.867,687.514C656.869,688.363 658.534,689.889 659.481,691.859C663.181,699.562 657.983,711.71 655.578,719.417C661.012,716.701 666.451,714.206 672.122,712.031C678.251,709.68 692.675,703.135 698.636,705.798C698.659,706.294 698.676,706.79 698.704,707.285C699.055,713.465 708.402,711.723 712.374,715.673C715.662,718.942 714.819,726.127 714.903,730.468C711.921,731.817 708.569,733.152 705.965,735.145C699.691,739.946 699.874,749.117 699.131,756.288C698.793,756.356 698.453,756.418 698.116,756.49C692.028,757.803 686.783,760.633 681.741,764.192C673.704,769.865 629.336,810.715 625.612,817.308C624.373,819.502 624.873,821.639 625.733,823.885C629.388,833.424 641.086,840.261 649.623,844.468L641.413,854.169C638.487,852.056 635.438,850.082 632.453,848.049C629.196,851.069 626.16,853.621 624.764,857.957C625.297,860.906 625.577,861.012 627.639,862.98C632.514,863.927 638.449,859.487 643.302,858.403C646.485,857.693 648.571,859.498 651.201,860.976C652.733,860.987 653.659,860.881 655.025,860.106C658.868,857.925 661.924,854.692 663.076,850.394C661.94,846.609 658.958,845.41 656.427,842.483L656.772,840.67C660.212,840.356 664.205,841.254 667.495,840.565C669.83,840.077 672.147,837.443 673.312,835.478C676.869,829.479 672.688,827.254 671.467,821.606C670.482,817.051 673.86,813.047 676.235,809.484C672.508,801.251 666.58,796.458 661.785,789.175C661.027,788.024 661.402,787.827 661.682,786.547C663.326,786.099 663.523,785.732 665.2,786.441C669.278,788.166 685.006,807.988 686.822,812.537C687.449,814.11 687.566,814.99 686.843,816.558C684.763,821.069 683.405,824.417 682.834,829.421L682.681,830.85C678.847,835.892 668.856,842.774 668.509,848.847C670.071,851.695 672.754,852.531 675.567,853.806C669.862,861.814 662.895,869.077 656.814,876.839C656.83,877.951 656.762,878.974 656.569,880.072C655.348,887.02 645.539,885.337 639.114,889.912C638.732,890.184 638.355,890.465 637.976,890.741C638.016,900.268 637.696,909.793 637.016,919.296C642.737,919.081 650.624,916.338 655.51,920.032C657.705,921.693 659.197,923.193 659.659,925.936C657.053,931.312 647.824,931.857 642.765,934.677C642.482,935.495 642.358,935.693 642.343,936.683C642.282,940.68 644.5,946.375 647.572,949.021C650.072,951.175 652.526,951.775 655.733,951.618C658.927,950.336 660.472,947.64 662.45,944.966C667.39,946.317 674.525,947.664 678.87,950.305C687.248,955.398 687.526,967.958 689.821,976.595C699.273,970.837 704.413,958.513 712.162,955.542C715.188,954.382 718.61,954.31 721.743,953.526C728.337,951.877 731.568,944.896 734.774,939.542C735.499,939.159 736.23,938.784 736.965,938.419C741.575,936.128 749.888,932.835 755.01,934.866C756.835,935.589 757.794,936.829 758.362,938.689C760.195,944.693 755.393,952.273 752.703,957.342C753.39,961.329 754.312,965.268 752.333,968.841C749.824,970.154 747.602,971.204 745.708,973.347C745.01,977.579 747.662,979.605 748.802,983.516C749.699,986.592 747.059,990.345 745.636,993.033C746.614,997.932 750.27,1000.51 751.63,1004.98C754.24,1013.56 745.458,1029.7 741.231,1037.09C737.04,1044.41 727.003,1056.79 720.255,1062C718.406,1063.43 716.009,1064 713.787,1064.58C709.975,1065.8 706.217,1067.24 702.449,1068.59C698.729,1062.46 696.163,1055.64 692.826,1049.28C688.327,1040.72 680.587,1032.18 678.389,1022.84C674.718,1007.24 670.875,1015.14 666.373,1008.61C663.873,1004.99 664.905,1001.42 663.551,997.544C661.197,990.809 651.082,982.829 646.031,977.706C627.618,972.729 609.534,967.184 590.403,965.84C582.168,965.261 573.201,964.316 565.152,966.534C554.502,969.468 543.714,978.093 533.704,983.127C522.178,988.923 509.944,993.348 498.673,999.668C494.576,1001.96 491.036,1004.63 487.497,1007.7C480.695,1003.46 473.235,1000.61 466.217,996.78C457.244,991.887 448.77,985.943 440.259,980.296C440.395,980.116 440.534,979.937 440.667,979.755C440.889,979.451 441.095,979.135 441.325,978.837C443.93,975.461 444.041,973.76 444.483,969.666C446.174,953.971 454.926,943.507 466.722,933.813C463.118,928.39 456.091,924.849 454.316,918.491C461.42,909.615 472.094,902.09 480.462,894.324C487.055,888.207 493.093,880.891 500.173,875.383C514.209,864.464 535.447,855.937 544.882,840.005C546.26,837.678 546.224,836.716 545.504,834.188C543.578,832.928 541.902,831.936 540.592,829.98C540.708,824.278 543.339,818.261 545.121,812.86C546.242,812.899 547.355,812.911 548.475,812.932C550.846,812.976 553.319,813.106 555.64,812.529C562.629,810.794 586.354,799.429 592.786,795.097C602.679,788.435 601.528,784.2 614.617,781.213C617.152,787.764 620.271,800.524 625.758,804.925C627.303,806.164 628.928,806.751 630.9,806.482L630.662,804.867C621.593,799.361 622.367,787.295 617.746,778.593C615.49,777.269 614.56,777.017 611.994,777.855C605.34,780.028 599.125,786.583 593.218,790.411C586.687,794.644 558.955,810.21 552.151,809.655C546.381,809.185 547.262,795.433 545.645,790.984C544.343,787.401 541.149,784.452 538.573,781.729C544.063,776.624 548.48,770.971 553.04,765.059C567.156,762.713 579.744,756.441 593.614,753.225C596.452,748.765 599.458,744.454 602.524,740.148C605.735,738.788 609.372,737.529 612.364,735.761C614.458,734.523 615.172,733.6 615.64,731.274C614.418,729.718 612.481,727.716 611.989,725.788C611.59,724.224 612.228,722.313 613.069,720.976C614.41,718.841 615.748,718.398 618.085,717.661C628.064,714.515 622.004,711.51 625.862,708.347C636.596,699.548 644.11,699.649 654.867,687.514Z" style="fill:rgb(254,254,254);fill-rule:nonzero;"/>
    </g>
    <g transform="matrix(0.5625,0,0,0.562461,0,0)">
        <path d="M1219.41,902.094L1221.8,903.315C1223.17,905.707 1224.23,907.612 1226.42,909.327C1229.78,909.786 1233.36,907.714 1236.42,906.427C1239.43,908.872 1242.05,911.623 1244.74,914.412C1243.37,917.834 1242.17,921.44 1241.31,925.025C1239.25,933.534 1239.12,944.828 1244.11,952.338C1246.5,955.927 1249.36,957.991 1253.57,958.89C1255.14,959.227 1256.24,959.271 1257.54,960.302C1258.72,961.227 1259.03,963.907 1259.17,965.35C1260.19,975.667 1261.46,997.043 1257.65,1006.03C1256.63,1008.41 1254.59,1010.7 1252.97,1012.71C1252.91,1018.95 1250.14,1026.49 1250.55,1031.85C1250.96,1037.16 1254.16,1042.61 1255.39,1047.84C1256.27,1051.54 1256.05,1055.95 1256.13,1059.75C1265.21,1065.75 1270.16,1071.11 1276.26,1080.13C1268.81,1088.28 1262.26,1093.38 1252.57,1098.69L1254.44,1102.76C1255.6,1105.27 1256.93,1107.78 1257.15,1110.58C1257.96,1121.21 1244.33,1118.76 1239.36,1124.93C1233.82,1131.8 1241.28,1139 1242.4,1146.13C1241.87,1147.61 1241.31,1148.69 1240.17,1149.77C1236.37,1153.34 1231.46,1151.15 1226.81,1151.19C1225.31,1152.97 1225.31,1152.87 1225.42,1155.2C1228.37,1157.47 1234.74,1157.23 1238.44,1157.59L1240.2,1171.09C1246.14,1173.77 1252.71,1176.41 1256.56,1181.92C1256.83,1184.63 1255.77,1186.55 1254.65,1188.98C1253.21,1192.07 1243.84,1212.19 1241.47,1212.85C1238.55,1213.65 1229.28,1208.48 1226.4,1207.22C1224.72,1206.49 1221.95,1204.94 1220.09,1205.09C1218.06,1205.24 1213.9,1207.64 1211.77,1208.44L1210.37,1207.77C1211.68,1203.88 1216.14,1199.73 1218.86,1196.56C1214.95,1185.2 1210.47,1174.06 1206.56,1162.71L1199.21,1158.33C1195.62,1155.43 1192.37,1151.82 1189.08,1148.56C1186.86,1148.42 1183.83,1148.49 1181.81,1147.63C1180.05,1146.89 1179.93,1146.07 1179.21,1144.45C1180.16,1136.12 1192.24,1125.29 1197.62,1118.51C1193.7,1113.82 1188.75,1109.9 1184.15,1105.87C1180.74,1106.24 1177.35,1106.75 1173.96,1107.25C1170.47,1103.84 1167.38,1099.87 1164.2,1096.16L1157.38,1104.34C1147.36,1102.47 1139.16,1096.56 1129.08,1094.55C1128.37,1090.69 1127.92,1087 1125.43,1083.84C1119.42,1076.21 1113.23,1064.3 1105.22,1058.83C1100.94,1055.9 1095.83,1054.35 1091.53,1051.37C1087.76,1048.76 1086.89,1046.71 1086.28,1042.35C1085.67,1037.98 1085.05,1036.04 1082.47,1032.5L1081.69,1031.45C1083.21,1024.71 1087.16,1019.34 1089.13,1012.9C1092.33,1002.45 1091.87,978.105 1088.22,967.898C1087.64,966.294 1086.48,963.955 1084.81,963.329C1080.56,961.737 1074.26,965.18 1070.28,966.738C1071.21,961.962 1072.32,957.361 1073.72,952.701L1085.06,950.374C1091.23,943.547 1095.33,937.62 1104.56,934.883C1105.27,930.236 1105.69,920.346 1109.59,917.41C1115.81,912.727 1131.77,923.649 1138.68,924.318C1140.92,924.535 1142.34,923.688 1144.04,922.339C1154.57,914.009 1186.22,932.699 1204.95,920.862C1209.27,918.131 1211.68,913.778 1212.7,908.874C1212.81,908.349 1213.12,906.701 1213.31,906.144C1214.26,903.411 1217,903.022 1219.41,902.094Z" style="fill:rgb(254,254,254);fill-rule:nonzero;"/>
    </g>
    <g transform="matrix(0.5625,0,0,0.562461,0,0)">
        <path d="M1321.08,543.631C1322.17,543.649 1323.37,543.612 1324.46,543.793C1326.86,544.195 1327.55,544.751 1328.98,546.661C1328.71,547.757 1328.3,549.005 1328.23,550.127C1328.22,550.183 1328.2,551.848 1328.36,552.106C1328.69,552.666 1338.5,560.777 1341.19,564.34C1358.6,546.378 1354.6,561.896 1366.67,556.446C1372.82,553.671 1376.84,546.805 1383.82,546.602C1389.3,552.364 1393.36,560.987 1397.51,567.823L1382.18,562.5C1374.82,573.803 1364.09,575.538 1352.18,579.731C1350.94,583.068 1349.15,586.156 1347.48,589.291C1340.32,589.081 1302.87,590.122 1298.68,593.685C1293.65,597.96 1292.53,604.103 1286.73,608.53L1285.56,609.418C1293.87,619.943 1292.15,631.693 1291.59,644.478C1295.87,648.695 1301.35,648.611 1307.04,648.931C1317.32,649.51 1325.54,656.417 1335.67,658.163C1343.01,659.426 1350.34,657.21 1356.23,652.778C1374.63,638.935 1371.4,616.141 1374.42,595.973L1385.72,596.096C1389.89,592.514 1394.52,589.589 1398.49,585.772C1399.06,583.576 1399.46,581.081 1400.81,579.219C1401.6,578.117 1405.83,577.742 1407.35,577.394C1406.54,575.228 1405.86,575.202 1403.91,574.077C1399.42,574.096 1398.59,577.107 1395.05,577.645C1388.66,578.618 1387.17,575.689 1380.83,580.176C1370.83,587.258 1371.94,598.236 1369.72,608.684C1369.14,611.411 1369.25,611.356 1366.85,612.913C1360.13,613.386 1352.49,605.272 1347.19,601.479C1343.11,598.554 1340.35,596.159 1335.13,597.014C1330.87,600.709 1331.09,605.872 1330.57,611.119C1326.44,614.708 1323.17,618.85 1319.77,623.108C1319.36,633.793 1322.84,642.342 1326.91,651.972C1322.43,649.744 1316.43,646.028 1311.53,645.245C1306.24,644.399 1301.03,645.685 1295.81,644.082L1295.26,642.619C1296.49,639.262 1297.52,636.712 1296.9,633.067C1296.33,629.648 1295.87,626.932 1296.96,623.572C1300,614.254 1292.76,616.586 1291.68,610.32C1293.91,606.121 1297.03,598.282 1300.53,595.12C1305.1,590.998 1342.5,596.652 1349.94,591.979C1354.09,589.371 1352.96,583.431 1356.82,580.61C1358.61,580.39 1360.4,580.141 1362.17,579.758C1371.27,577.787 1378.91,574.428 1383.95,566.533C1387.68,566.246 1388.78,568.707 1392.12,569.441C1395.62,570.212 1399.49,568.333 1403.06,569.223C1405.29,569.781 1407.48,570.329 1409.74,570.797C1411.19,571.241 1411.26,571.596 1412.23,572.684C1410.77,576.927 1411.43,581.121 1411.74,585.51C1412.13,591.073 1416.59,594.14 1417.67,599.492C1415.44,608.421 1405.48,603.76 1400.98,610.588C1391.17,625.458 1365.44,664.885 1367.62,682.257C1368.97,693.012 1374.71,703.873 1376.8,714.869C1372.48,718.983 1366.81,721.684 1363.3,726.591C1360.78,737.221 1375.4,747.67 1377.95,757.659C1378.13,758.373 1378.5,760.492 1378.27,761.145C1376.55,766.062 1369.27,771.966 1366.44,776.914C1362.54,783.719 1361.32,791.959 1357.28,799.029C1342.51,787.883 1323.13,789.889 1305.91,786.393C1300.7,776.684 1304.07,759.097 1304.02,748.199C1302.11,745.132 1299.98,741.116 1297.35,738.675C1292.87,734.52 1287.71,738.829 1282.7,739.068C1280.61,739.168 1280.39,738.826 1278.98,737.469L1279.14,734.977C1281.58,732.19 1284.96,730.148 1287.96,727.996C1288.98,719.415 1288.97,711.044 1288.91,702.422C1277.26,699.324 1266.84,697.159 1254.78,698.703C1242.12,687.292 1236.65,678.112 1227.98,663.894C1215.76,663.892 1204.17,665.871 1192.2,667.95C1190.12,666.641 1187.81,665.338 1185.92,663.767C1183.92,662.103 1183.2,660.709 1182.97,658.089C1189.19,650.664 1213.28,656.778 1219.69,649.51C1222.74,646.046 1222.21,640.2 1222.33,635.86C1225.91,633.705 1230.14,631.546 1231.55,627.318C1234.22,619.33 1226.56,608.652 1222.91,601.826C1229.11,595.45 1232.28,590.118 1235.54,581.841C1242.03,579.901 1248.73,578.451 1255.3,576.806C1250.58,571.579 1242.37,566.213 1241.34,558.886L1242.66,557.601C1251.75,556.877 1260.98,560.846 1270.16,560.945C1275.89,561.007 1278.31,558.614 1282.15,554.881C1294.38,563.118 1303.73,563.793 1318.16,562.965L1325.73,554.179C1322.52,550.331 1321.4,548.64 1321.08,543.631Z" style="fill:rgb(254,254,254);fill-rule:nonzero;"/>
    </g>
    <g transform="matrix(0.5625,0,0,0.562461,0,0)">
        <path d="M1117.85,432.065C1120.71,432.035 1123.66,431.964 1126.44,432.753C1133.51,434.762 1130.95,443.752 1133.69,448.839C1136.37,449.399 1136.61,449.399 1139.14,448.346C1141.55,444.69 1140.29,440.286 1141.69,436.216L1143.5,435.928C1149.62,438.252 1149.41,444.668 1152.38,449.766C1154.51,449.298 1156.65,448.865 1158.8,448.466C1161.69,449.538 1161.8,449.86 1163.47,452.27C1163.59,456.256 1159.8,457.135 1157.81,460.171C1154.57,465.126 1161.8,467.883 1163.14,472.062C1162.76,472.576 1162.62,473.542 1161.98,473.604C1158.41,473.948 1152.85,467.486 1146.89,468.978C1145.07,471.576 1143.74,476.166 1143.78,479.363C1143.85,484.532 1146.33,489.454 1150.15,492.864C1156.98,498.958 1162.45,498.296 1170.97,497.745C1172.34,496.683 1173.72,495.641 1175.12,494.618C1177.91,492.6 1179.05,492.532 1182.48,493.096C1183.29,493.909 1184.26,494.49 1184.51,495.64C1185.7,501.241 1183.16,504.326 1180.27,508.83C1176.31,506.707 1172.65,504.353 1168.1,503.961C1165.96,504.829 1165.14,504.921 1164.4,507.331C1161.54,516.587 1182.21,519.633 1186.7,525.095C1189.84,528.924 1188.22,535.29 1191.24,539.382C1193.96,543.08 1201.54,542.858 1205.87,543.437C1206.36,551.175 1206.08,557.507 1203.86,564.982C1209.13,574.659 1209.95,580.573 1209.44,591.637C1219.7,601.798 1224.9,612.911 1230.31,626.055C1228.28,627.991 1225.98,629.655 1223.95,631.602C1218.61,636.705 1218.83,641.478 1218.6,648.428C1214.06,648.683 1209.62,649.752 1205.08,650.18C1197.94,650.855 1190.83,650.814 1183.71,651.865C1179.88,654.676 1181.31,659.35 1178.35,661.348C1171,666.32 1156.35,666.507 1151.04,674.272C1149.05,677.173 1148.41,680.923 1146.55,683.97C1142.24,684.749 1135.04,681.858 1130.17,681.365C1129.09,677.255 1128.2,671.849 1125.61,668.433C1125.41,668.167 1125.18,667.92 1124.97,667.662C1122.24,664.327 1117.84,662.8 1113.99,661.078C1106.95,661.98 1100.82,665.373 1094.57,668.506C1089.07,664.963 1083.45,661.619 1077.7,658.48C1077.55,653.888 1073.58,641.696 1074.91,638.339C1077.63,631.435 1088.07,628.282 1088.82,619.465L1087.33,618.191C1085.03,618.824 1083.05,619.681 1080.91,620.727C1074.24,617.738 1069.83,576.691 1067.88,567.968C1066.77,562.978 1064.8,558.22 1062.91,553.485C1070,545.033 1075.87,535.813 1082.82,527.299C1087.58,525.727 1095.07,524.072 1098.36,520.091C1096.72,517.217 1091.57,518.133 1088.99,515.348C1091.08,510.897 1100.76,505.585 1105.17,503.131C1107.42,501.878 1108.65,501.733 1111.09,502.654C1113.73,503.653 1115.34,505.118 1116.59,507.589C1116.16,509.935 1115.65,511.804 1116.52,514.124L1120.05,515.165C1120.44,515.992 1120.66,516.298 1120.69,517.329C1120.75,519.981 1119.63,523.748 1117.72,525.534C1114.41,524.479 1112.42,520.137 1110.54,517.26C1109.86,518.637 1109.87,519.713 1110.02,521.217C1110.37,524.863 1112.23,529.957 1115.05,532.359C1117.83,531.614 1118.66,530.43 1120.21,528.019C1125.4,519.991 1128.97,511.566 1126.73,502.068C1126.66,501.769 1126.39,500.731 1126.37,500.4C1126.01,495.602 1132.3,497.347 1135.19,494.268C1135.57,491.557 1135.18,489.946 1134.31,487.367C1128.33,482.324 1124.29,489.227 1118.33,487.538C1116.6,487.048 1113.96,484.683 1111.99,483.825L1109.79,484.716C1106.97,488.488 1106.57,493.525 1105.69,498.063C1097.89,493.485 1082.82,492.938 1076.93,486.257C1075.19,484.278 1076.7,474.126 1076.56,470.876C1078.41,467.526 1081.6,466.343 1084.83,464.387C1086.24,460.083 1087.78,455.599 1090.61,452.002C1098.46,442.012 1108.36,441.746 1119.82,440.518C1121.14,440.376 1121,440.091 1121.79,439.106C1120.54,436.727 1119.22,434.379 1117.85,432.065Z" style="fill:rgb(254,254,254);fill-rule:nonzero;"/>
    </g>
    <g transform="matrix(0.5625,0,0,0.562461,0,0)">
        <path d="M1032.36,640.713C1049.37,642.191 1050.01,679.373 1060.16,691.953C1065.23,698.248 1075.15,701.965 1081.96,706.411C1078.36,709.994 1070.26,718.686 1069.59,723.668C1069.34,725.508 1069.96,726.245 1071.54,727.167C1073.23,728.149 1076.54,728.485 1078.49,729.004C1086.66,731.178 1094.12,736.702 1099.05,743.584C1100.4,745.467 1100.43,745.821 1100.12,748.073C1091.84,753.428 1090.79,744.121 1083.16,744.877C1078.73,745.315 1076.61,750.165 1072.09,750.235C1068.81,748.563 1068.22,746.893 1066.39,743.9C1059.98,741.481 1059.13,750.823 1054.04,752.072C1046.26,753.981 1037.36,751.186 1029.13,753.552C1025.23,754.673 1024.41,757.918 1022.69,761.205C1017.1,762.572 1010.35,764.071 1005.72,767.659C1004.08,768.924 1003.75,769.22 1003.52,771.215C1005.35,772.582 1005.38,772.884 1007.62,772.712C1008.6,771.01 1009.55,769.291 1010.46,767.555C1018.7,764.268 1035.3,761.866 1044.15,762.797C1049.07,768.648 1043.16,771.038 1042.99,777.315C1045.51,783.872 1049.27,781.124 1053.98,784.213C1055.39,791.598 1053.91,817.729 1050.73,824.819L1059.87,835.77C1052.88,839.123 1046.84,842.859 1040.71,847.623C1033.24,842.34 1025.23,842.314 1016.5,840.462C1012.4,842.565 1008.43,845.144 1004.45,847.49C998.738,842.202 992.388,837.643 985.549,833.917C984.694,833.859 983.816,833.538 982.987,833.319C983.366,827.52 980.514,822.796 977.749,817.971C981.208,811.861 984.416,805.855 985.003,798.709C985.151,796.911 985.763,794.055 984.614,792.703C980.301,800.613 978.971,810.074 974.627,818.411L981.336,832.33C974.31,833.436 968.222,837.493 962.454,838.326C957.855,838.99 946.688,824.625 942.889,821.387C940.049,818.966 936.019,817.204 932.711,815.47C931.172,809.736 929.409,804.078 927.644,798.41C929.739,796.297 931.578,794.681 932.501,791.796C932.295,790.466 932.079,789.128 931.938,787.789C931.107,779.888 942.393,778.588 946.28,773.224C949.985,768.109 953.773,757.168 952.729,750.863C949.412,746.785 944.133,746.776 939.167,745.94C937.152,741.979 933.978,737.329 932.932,733.109C930.744,724.277 931.004,708.578 934.576,700.378C937.886,692.78 925.286,668.313 922.474,659.706C930.749,658.46 938.553,659.229 946.753,658.537C954.585,657.876 952.491,649.113 956.389,644.455C959.031,643.385 960.3,643.304 963.083,643.867C967.239,646.761 966.622,651.451 969.042,655.409C970.42,657.662 972.544,657.755 974.862,658.231C977.208,657.668 978.143,657.152 979.834,655.391C982.723,652.384 983.791,650.991 987.995,650.494C991.875,651.679 994.119,654.615 996.81,657.487C998.199,657.12 999.59,656.742 1000.99,656.42C1011.18,654.078 1005.26,661.665 1013.38,666.626C1021.68,665.769 1022.67,655.3 1025.92,649.077C1027.54,645.972 1030.05,643.322 1032.36,640.713Z" style="fill:rgb(254,254,254);fill-rule:nonzero;"/>
    </g>
    <g transform="matrix(0.5625,0,0,0.562461,0,0)">
        <path d="M748.8,751.685C749.75,752.036 750.256,752.183 751.184,752.73C753.401,754.036 753.944,755.117 754.531,757.505C753.291,761.698 750.043,764.487 747.101,767.585C747.703,771.907 748.526,776.189 749.314,780.48C747.896,784.623 745.743,788.515 743.793,792.429C748.443,792.533 782.331,794.684 785.602,796.715C786.687,797.389 787.371,799.786 787.61,800.973C788.099,803.39 788.357,805.463 787.112,807.567C783.588,806.609 780.537,805.722 776.837,805.88C774.824,807.37 774.932,807.633 774.272,810.088C775.599,813.706 776.663,813.187 779.208,815.644C783.457,819.749 771.971,837 772.107,844C772.493,844.595 772.868,845.197 773.232,845.806C776.528,851.415 773.379,852.48 772.732,857.867C772.038,863.632 784.932,867.823 788.993,870.941C791.444,872.823 793.564,875.355 795.63,877.645C794.733,880.273 793.935,883.438 792.167,885.617C789.437,888.982 785.646,887.179 781.952,887.611C776.931,895.941 778.124,905.043 777.426,914.394C775.137,916.811 771.62,914.926 768.765,916.494C762.824,919.757 757.715,927.617 751.674,931.698C744.57,929.862 739.349,934.12 733.257,937.374C732.535,938.625 731.804,939.87 731.063,941.109C724.625,951.828 717.95,951.688 706.85,954.467C702.806,958.436 697.608,967.748 692.262,969.182C691.463,966.009 690.737,962.597 689.454,959.584C685.17,949.525 678.185,946.791 668.626,942.999C660.422,939.15 659.561,945.57 652.148,947.05C649.91,946.039 648.932,945.249 647.951,942.909C646.822,940.217 646.066,938.129 647.001,935.392C650.842,934.945 652.381,937.52 656.044,937.32C660.181,933.226 665.609,928.399 667.22,922.67C661.672,913.462 647.381,918.567 641.587,913.521C640.42,906.276 641.093,898.497 641.226,891.169C643.175,889.918 645.378,888.282 647.603,887.656C650.328,886.89 651.206,887.917 653.502,889.168C659.582,886.768 659.26,879.6 662.517,874.709C667.274,867.566 674.3,862.212 678.911,854.818C678.995,851.62 676.207,851.034 675.134,847.801C677.284,839.499 686.575,829.783 690.625,821.796C693.974,815.193 690.497,810.827 688.43,804.391C695.857,806.145 693.223,801.462 698.279,800.579C700.815,802.545 700.892,805.621 701.857,808.466C702.774,811.168 702.845,812.272 705.387,813.572C712.366,810.822 711.927,801.238 716.614,796.074C718.509,795.554 720.549,795.119 722.178,793.981C724.56,792.317 725.556,791.928 728.546,791.812C728.844,791.801 729.143,791.8 729.442,791.794C729.828,791.162 730.058,790.877 730.23,790.07C730.747,787.642 730.918,785.066 729.372,783.171C725.579,783.742 722.07,787.465 719.127,789.822C714.269,781.508 711.62,773.82 709.513,764.437C724.26,762.111 735.685,759.208 748.8,751.685Z" style="fill:rgb(254,254,254);fill-rule:nonzero;"/>
    </g>
    <g transform="matrix(0.5625,0,0,0.562461,0,0)">
        <path d="M1019.08,505.545C1022.55,506.431 1022.39,507.083 1024.22,510.015C1030.29,508.56 1035.53,507.634 1041.79,508.14L1043.37,508.279C1044.04,511.389 1044.63,515.277 1046.5,517.92C1052.73,526.727 1064.09,524.915 1073.42,526.07C1074.5,526.864 1075.67,527.179 1075.79,528.644C1076.35,535.531 1064.4,546.938 1059.96,551.943C1062.8,566.915 1067.95,577.593 1065.89,593.45C1072.44,603.56 1071.15,610.586 1075.44,620.387C1076.71,623.278 1080,622.6 1080.85,626.459C1078.48,631.311 1073.31,634.695 1069.2,638.098C1070.63,641.341 1072.29,644.714 1073.24,648.13C1074.78,653.697 1072.76,657.562 1070.15,662.275C1072.26,670.276 1074.77,679.951 1074.97,688.202C1075.05,691.596 1074.6,693.222 1072.38,695.673C1068.97,695.846 1067.24,694.413 1064.34,692.842C1055.48,678.534 1050.55,648.55 1041.07,639.553C1039.34,637.912 1037.21,636.74 1034.75,637.07C1026.07,638.232 1021.22,654.259 1017.18,660.606C1016.51,661.649 1015.13,661.531 1013.96,661.777C1010.17,659.359 1012.67,654.555 1008.42,651.492C1004.74,651.349 1001.63,653.34 998.4,654.909C995.468,651.673 991.008,646.5 986.341,646.26C982.26,646.05 981.47,651.048 978.711,653.162C977.43,654.144 976.52,653.602 974.985,653.43C970.173,650.426 967.861,645.638 964.772,641.025C964.26,640.97 963.75,640.889 963.236,640.86C947.633,639.979 954.953,647.791 948.2,654.164C942.137,656.462 929.209,655.834 922.743,654.77C920.996,653.514 920.255,653.344 919.883,651.091C918.292,641.449 935.421,627.595 940.3,620.1C940.493,619.803 940.678,619.501 940.867,619.202C944.719,622.468 947.861,626.009 953.267,625.704C958.738,625.394 963.339,622.074 966.602,617.861C970.434,612.913 975.229,603.366 973.878,597.037C972.792,591.95 966.071,588.033 962.167,585.16C961.876,580.851 962.156,575.637 960.155,571.757C949.258,564.938 954.741,562.299 949.506,557.271C948.674,557.285 947.84,557.311 947.008,557.268C938.876,556.84 934.258,547.339 929.196,541.973C926.959,539.601 925.144,538.8 921.937,538.739C917.843,540.654 914.697,548.836 912.532,552.879C903.67,536.783 901.398,545.552 895.029,538.457L895.527,537.074C897.258,536.168 898.959,535.294 900.792,534.607C909.961,531.174 912.684,521.158 918.708,519.319C924.271,517.62 932.581,518.284 937.582,521.027C940.443,524.325 940.077,528.599 940.607,532.771C942.04,534.434 942.447,535.135 944.661,535.689C947.393,536.374 949.071,535.274 951.27,533.837C952.77,532.857 954.211,531.842 955.849,531.097C960.987,528.76 966.913,532.094 971.859,533.848C974.702,532.013 977.848,529.466 981.335,529.376C983.659,529.316 986.518,529.231 988.795,528.69C991.746,527.988 993.596,523.392 995.076,520.978C1004.16,515.917 1011.63,513.122 1019.08,505.545Z" style="fill:rgb(254,254,254);fill-rule:nonzero;"/>
    </g>
    <g transform="matrix(0.5625,0,0,0.562461,0,0)">
        <path d="M1062.53,747.386C1064.11,747.989 1064.79,748.563 1065.82,749.849C1067.85,752.402 1068.91,753.716 1072.17,754.561C1076.69,753.8 1080.23,751.014 1083.99,748.553C1086.31,748.559 1086.34,748.932 1088.11,750.48C1088.89,753.68 1089.57,757.816 1092.32,759.902C1097.94,764.162 1109.03,762.021 1115.55,761.116C1114.53,768.325 1112.46,774.486 1109.46,781.101C1103.68,782.364 1099.13,783.675 1093.93,786.587L1095.7,787.249L1093.19,787.228C1093.42,787.294 1093.64,787.385 1093.88,787.425C1095.95,787.777 1098.59,786.988 1100.64,786.591C1118.74,783.088 1113.02,764.614 1123.85,756.845L1125.55,757.784C1127.55,762.19 1126.97,767.322 1126.89,772.056C1133.26,772.189 1142.62,771.402 1148.21,774.757C1151.61,776.8 1152.1,780.111 1153.03,783.661C1159.64,787.363 1165.12,776.012 1178.06,778.664C1180.01,779.065 1182.46,777.732 1184.46,777.225C1189.26,781.873 1192.12,791.393 1194.01,797.798C1199.29,794.883 1204.67,791.557 1210.21,789.197C1213.5,787.795 1215.86,787.444 1219.16,788.818C1220.2,789.955 1221.03,790.833 1221.48,792.344C1221.94,793.91 1222.4,796.995 1221.43,798.479C1217.14,805.063 1205.28,807.258 1200.71,816.714C1200.92,817.873 1201.15,819.103 1201.11,820.285C1200.83,827.292 1193.86,828.353 1190.13,832.6C1184.25,839.306 1186.94,850.271 1179.04,856.952C1175.87,856.732 1174.13,853.869 1171.95,851.62C1165.5,852.702 1166.19,860.545 1161.9,864.13C1159.19,866.389 1154.7,867.32 1151.53,868.918C1149.92,869.728 1147.62,871.086 1146.59,872.633C1144.44,875.852 1141.65,890.199 1139.83,895.266C1141.94,898.621 1144.44,902.139 1145.92,905.818C1147.25,909.104 1147.94,912.675 1146.61,916.023C1138.3,924.154 1119.07,911.174 1108.12,915.025C1103.37,919.111 1103.21,925.947 1102.22,931.778C1100.27,933.529 1096.87,934.153 1094.28,934.531C1090.57,935.072 1087.16,933.599 1084.25,931.317C1071.91,921.612 1080.97,904.283 1079.38,891.986C1078.77,887.287 1075.76,883.312 1075.24,878.467C1076.69,876.707 1083.54,877.081 1086.33,876.136C1095.77,867.999 1084.23,857.931 1087.03,848.101C1088.47,846.134 1089.38,845.669 1091.7,844.86C1092.22,844.679 1093.83,844.148 1094.35,843.917C1095.91,843.235 1097.15,842.536 1097.76,840.904C1099.25,836.922 1096.35,832.596 1094.56,829.156C1097.39,823.671 1100.52,818.323 1103.55,812.945C1098.62,808.975 1094.37,807.615 1092.73,800.86C1093.3,798.646 1093.62,796.871 1093.53,794.58C1092.5,792.63 1092.03,791.577 1090.07,790.408L1089.39,791.079C1089.04,793.811 1089.27,795.308 1090.21,797.88C1090.38,798.334 1090.57,798.777 1090.71,799.24C1091.26,801.053 1091.06,803.022 1090.07,804.657C1089,806.422 1087.12,807.754 1085.1,808.194C1082.58,808.745 1080.84,808.148 1078.71,806.843L1077.88,802.523L1076,801.776C1073.88,803.157 1073.65,803.836 1072.52,806.021C1073.52,809.464 1074.42,807.12 1076.92,808.274C1078.63,809.063 1079.04,810.816 1081.19,811.453C1086.18,812.93 1091.56,808.659 1096.08,811.794C1097.53,818.361 1093.04,824.778 1090.1,830.395L1096.58,840.242C1095.24,840.469 1093.89,840.67 1092.54,840.909C1089.47,841.456 1086.02,842.482 1083.04,841.042C1076.91,838.077 1068.32,825.049 1066.65,818.474C1065.86,815.34 1067.41,813.805 1068.98,811.266C1070.65,808.558 1071.5,807.355 1071.22,804.1C1069.64,802.276 1069.53,801.687 1067.08,801.271C1065.78,802.309 1064.4,803.394 1063.57,804.86C1057.29,815.921 1070.34,827.335 1072.57,836.962C1071.71,837.106 1071.38,837.227 1070.42,837.019C1064.25,835.671 1059.56,830.48 1055.64,825.941C1056.19,813.379 1060.23,792.276 1057.94,780.768C1054.83,778.541 1052.41,779.967 1049.19,778.571C1044.86,776.691 1051.01,766.054 1049.03,761.375C1044.69,756.939 1037.78,759.364 1032.19,758.45C1033.09,757.505 1032.9,757.651 1034.09,756.722C1039.16,752.787 1051.03,755.629 1057.19,756.41C1058.76,753.198 1060.48,750.319 1062.53,747.386Z" style="fill:rgb(254,254,254);fill-rule:nonzero;"/>
    </g>
    <g transform="matrix(0.5625,0,0,0.562461,0,0)">
        <path d="M1180.34,460.516C1185.08,465.159 1190.26,468.234 1195.91,471.574L1196.55,475.753C1196.95,478.586 1197.21,480.682 1198.65,483.219C1199.39,484.529 1199.86,485.043 1199.85,486.642C1199.85,487.86 1199.03,488.351 1198.28,489.199L1196.6,489.194C1195.25,487.732 1193.9,486.254 1192.49,484.851C1190.68,483.058 1189.43,482.042 1186.87,482.031L1186.35,482.94C1189.89,485.375 1194.33,492.506 1198.09,492.757C1199.16,491.227 1199.88,490.412 1201.51,489.486C1202.85,490.75 1204.94,493.112 1206.76,493.575C1214.36,495.508 1225.44,487.674 1232.01,484.22C1236.86,481.676 1241.7,480.278 1247.24,480.39C1254.55,480.537 1262.22,483.301 1269.12,485.569C1289.42,492.235 1308.3,501.268 1327.4,510.769C1342.15,518.104 1355.94,525.688 1371.86,530.286C1364.72,541.344 1351.84,551.839 1341.35,559.62C1337.49,554.165 1334.02,544.369 1328.62,540.765C1323.86,539.558 1319.21,540.302 1314.69,542.106C1311.59,543.341 1309.99,544.54 1308.67,547.521C1310.34,550.385 1311.72,550.073 1314.84,550.91C1316.99,550.524 1316.99,550.889 1318.82,552.144C1319.5,554.636 1319.49,554.719 1318.51,557.103C1316.74,558.437 1315.12,559.378 1312.93,559.874C1302.3,562.282 1290.32,556.495 1281.65,550.92C1279.61,552.949 1275.71,557.529 1272.96,558.228C1265.14,560.213 1251.48,553.028 1241.35,555.466C1238.95,556.044 1238.76,556.417 1237.49,558.374C1237.86,565.235 1243.73,569.643 1248.28,574.163L1233.61,579.77C1229.98,586.64 1226.69,592.95 1221.81,599.062C1218.43,596.047 1213.57,592.674 1213.22,587.883C1218.08,577.553 1210.74,573.591 1207.42,564.302C1208.52,558.887 1210.13,552.893 1209.84,547.327C1209.71,544.833 1209.12,543.905 1207.36,542.248C1204.42,541.672 1201.17,541.182 1198.59,539.584C1196.04,538.002 1194.54,536.257 1193.87,533.413C1195.13,531.564 1196.02,530.171 1196.51,527.935C1192.79,519.797 1179.32,518.107 1172.35,513.142C1170.02,511.486 1170,511.474 1169.5,508.616C1172,506.888 1178.63,513.945 1182.38,513.735C1184.89,508.604 1187.56,503.664 1190.46,498.744C1187.53,493.253 1184.36,488.464 1180.41,483.661C1181.48,480.804 1182.24,478.475 1182.43,475.417C1181.39,473.241 1180.67,472.513 1178.6,471.216C1177.12,470.289 1176.17,469.77 1175.2,468.261C1175.95,464.925 1178.11,462.965 1180.34,460.516Z" style="fill:rgb(254,254,254);fill-rule:nonzero;"/>
    </g>
    <g transform="matrix(0.5625,0,0,0.562461,0,0)">
        <path d="M1178.62,665.24C1182.88,665.202 1189.39,669.874 1193.54,671.711C1201.62,669.789 1214.35,665.067 1222.38,667.716C1229.53,670.072 1231.75,677.359 1234.69,683.568C1222.75,700.938 1228.55,704.344 1224.14,720.982C1221.5,730.938 1213.41,735.323 1205.23,740.133C1210.99,747.475 1217.17,757.017 1221.4,765.285C1223.05,768.49 1224.07,772.169 1222.77,775.679C1219.73,783.891 1204.84,788.741 1197.42,792.142C1195.26,786.888 1189.78,774.918 1184.6,772.656L1180.67,774.752C1171.24,774.07 1164.81,777.409 1156.18,780.39L1154.86,779.392C1154.67,776.91 1154.36,774.867 1153.55,772.507L1150.63,771.308L1129.45,768.277C1129.45,764.866 1129.74,760.482 1128.51,757.29C1127.59,754.886 1126.56,754.474 1124.27,753.647C1120.4,754.158 1117.95,756.425 1114.94,758.716C1109.46,759.098 1100.36,760.735 1095.3,758.908C1093.52,758.264 1093.43,757.524 1092.64,755.926C1095.12,752.164 1100.18,752.733 1102.99,748.074C1103.32,745.744 1103.15,744.324 1101.97,742.241C1097.76,734.854 1086.63,727.296 1078.58,724.959C1076.76,725.457 1075.38,726.018 1073.54,725.266C1073.49,724.298 1073.45,723.45 1073.72,722.506C1075.28,716.954 1081.61,710.852 1086.33,707.828C1109.23,717.797 1113.09,722.286 1138.8,715.706C1162.29,693.948 1148.32,685.78 1153.8,676.384C1157.57,669.922 1171.86,667.036 1178.62,665.24Z" style="fill:rgb(254,254,254);fill-rule:nonzero;"/>
    </g>
    <g transform="matrix(0.5625,0,0,0.562461,0,0)">
        <path d="M698.689,552.105C711.2,555.145 717.093,556.588 729.891,552.323C734.501,554.804 738.836,556.586 743.85,558.092C742.254,563.385 739.235,569.912 741.177,575.264C745.266,578.049 751.23,578.21 756.034,579.124C757.194,581.111 757.998,582.619 760.008,583.886C764.376,583.685 767.665,580.396 771.562,578.685C782.223,574.003 785.195,583.79 793.64,586.984L794.175,586.141C792.671,583.894 791.197,581.646 789.794,579.334C790.224,579.458 790.669,579.536 791.083,579.706C798.194,582.628 802.505,594.419 805.622,600.792C810.472,602.619 817.359,606.05 822.46,606.038C825.215,606.032 828.129,604.524 830.825,605.045C832.651,605.397 834.583,607.518 835.515,609.082C837.428,612.289 837.801,616.24 836.886,619.823C836.096,622.918 834.353,625.994 831.522,627.625C823.199,632.42 807.032,627.309 798.234,625.383C788.71,627.856 782.658,631.164 774.743,637.013C766.33,637.017 746.378,631.331 740.21,634.826C733.686,638.521 732.212,647.837 730.286,654.493C723.639,654.876 717.312,654.67 710.682,654.083C701.05,667.179 702.881,671.061 686.779,679.109C684.137,678.804 681.79,678.053 679.075,677.987C675.153,679.848 672.751,683.152 669.726,686.155C667.457,688.407 666.078,689.047 662.918,689.009C659.314,686.116 655.094,685.612 651.416,683.034L652.069,681.567C653.795,681.059 655.519,680.621 657.268,680.203C663.655,671.203 671.188,664.972 679.507,657.873C679.882,651.092 679.717,644.43 679.45,637.654C684.297,636.755 692.41,636.172 695.46,631.897C696.292,618.508 704.345,624.283 709.654,617.012C709.347,611.98 705.029,608.042 701.83,604.47C687.634,607.46 673.084,607.675 658.908,610.682C662.673,604.265 678.204,582.086 683.47,577.686C686.164,575.435 690.649,574.017 693.898,572.657C692.443,567.361 688.661,561.789 690.387,556.277C692.721,553.546 695.387,553.03 698.689,552.105Z" style="fill:rgb(254,254,254);fill-rule:nonzero;"/>
    </g>
    <g transform="matrix(0.5625,0,0,0.562461,0,0)">
        <path d="M868.611,559.061C875.155,558.551 878.112,559.561 883.487,563.13C880.297,570.605 877.725,577.663 876.488,585.733C872.544,586.52 868.611,587.359 864.69,588.249C864.683,593.093 864.032,598.166 866.197,602.617C871.315,607.683 881.566,605.381 888.534,606.265C889.338,607.368 890.17,608.447 890.985,609.542C895.546,615.671 900.594,617.057 907.611,619.174C915.824,604.965 922.211,608.819 929.592,600.941C931.155,599.273 931.709,594.875 933.267,593.55C936.017,591.21 941.372,594.502 944.608,593.571C947.588,592.713 950.007,589.319 952.909,588.029C955.443,586.904 959.648,587.509 962.133,588.494C965.278,589.741 967.637,592.251 968.871,595.381C970.601,599.77 969.925,604.848 968.11,609.1C965.196,615.929 960.166,620.428 953.37,623.151C949.837,621.046 944.93,617.493 940.837,617.124C932.943,616.413 924.009,641.176 918.078,644.526C915.375,646.053 911.148,645.868 908.218,645.385C906.152,645.044 904.081,644.756 902.012,644.445C900.087,645.47 898.254,646.345 896.217,647.122C890.692,645.535 886.298,638.354 881.159,634.878L880.151,634.206C870.216,637.484 860.295,639.472 849.933,640.828C855.119,656.565 860.458,657.179 869.125,669.266C871.785,672.976 873.619,677.525 875.528,681.666C875.658,682.444 875.309,683.299 875.125,684.061C867.781,688.691 863.716,691.141 854.816,690.546C851.041,687.94 847.034,685.888 842.97,683.78C839.162,685.589 835.344,687.317 831.768,689.563C831.863,690.049 831.946,690.538 832.051,691.022C832.33,692.304 832.763,693.559 832.801,694.886C832.999,701.777 821.778,704.37 817.885,709.058C816.992,712.616 818.32,715.046 818.945,718.593C817.371,720.487 817.328,720.514 814.918,721.023L812.972,719.466C812.554,717.216 812.084,715.444 811.061,713.391C809.152,712.157 808.114,712.041 805.823,712.049C803.495,712.056 801.416,711.911 799.124,711.519C797.33,709.446 797.454,709.39 797.432,706.624C800.094,704.722 804.348,706.156 807.594,706.509C814.874,702.537 810.811,698.471 814.694,692.997C815.926,693.041 817.148,693.073 818.381,693.027C822.812,692.862 824.486,690.708 827.309,687.61L828.288,686.527C827.484,684.292 826.712,681.884 825.417,679.878C824.26,678.086 822.604,676.896 820.476,676.551C814.536,675.587 806.058,683.114 801.33,686.387C800.152,683.329 799.222,680.2 796.634,678.043C793.945,675.801 791.429,673.323 788.849,670.954C791.73,660.157 830.286,641.699 840.004,633.506C844.083,630.068 846.59,625.421 851.137,621.885C845.954,614.751 839.467,608.108 833.452,601.67C835.775,597.396 837.699,592.809 839.762,588.399C843.604,588.781 845.983,589.243 849.43,587.397C850.857,581.361 855.6,581.957 860.045,578.62C867.766,572.824 860.645,568.726 861.57,562.248C863.857,559.767 865.386,559.84 868.611,559.061Z" style="fill:rgb(254,254,254);fill-rule:nonzero;"/>
    </g>
    <g transform="matrix(0.5625,0,0,0.562461,0,0)">
        <path d="M1236.52,685.821C1242.79,689.532 1248.11,696.382 1253.17,701.595C1264.68,700.988 1274.48,701.562 1285.63,704.741C1285.91,711.874 1285.76,719.058 1285.78,726.197C1281.3,729.571 1276.77,732.87 1272.19,736.092C1272.93,736.817 1273.66,737.513 1274.45,738.178C1279.71,742.599 1282.95,741.707 1289.34,741.251C1292.21,741.045 1294.24,741.121 1296.43,743.15C1302.72,748.985 1299.06,759.393 1299.54,766.811C1299.84,771.528 1301.02,776.383 1300.99,781.084C1300.9,793.165 1282.8,797.589 1275,802.73C1272.17,804.596 1269.63,807.504 1267.24,809.912C1265.14,807.126 1262.95,803.831 1260.13,801.745C1257.55,799.845 1255.8,799.734 1252.76,800.141C1249.96,801.9 1248.5,803.667 1246.69,806.417C1244.28,812.571 1241.74,818.396 1238.57,824.196C1230.61,825.931 1222.69,827.84 1214.81,829.923C1211.4,826.33 1207.03,825.205 1203.87,822.102C1202.47,820.733 1202.66,819.94 1202.57,818.109C1206.21,810.644 1215.13,807.305 1221.44,802.418C1231.37,794.724 1219.2,790.371 1219.88,783.479C1221.87,782.939 1223.77,782.358 1225.7,781.622C1226.93,776.713 1227.56,771.715 1228.26,766.71C1220.98,761.742 1214.35,749.69 1210.81,741.607C1212.86,736.154 1221.97,733.991 1224.99,727.536C1231.98,712.615 1225.41,702.219 1236.52,685.821Z" style="fill:rgb(254,254,254);fill-rule:nonzero;"/>
    </g>
    <g transform="matrix(0.5625,0,0,0.562461,0,0)">
        <path d="M868.586,515.565C871.827,515.894 874.944,518.178 877.399,520.187C878.022,522.26 877.796,522.239 876.814,524.205C873.474,526.901 869.558,526.629 865.448,526.866C861.711,530.267 859.874,533.552 857.461,537.933C851.852,540.404 851.964,532.17 847.541,530.993C847.4,532.421 847.55,533.278 848.051,534.626C849.305,538.006 852.195,544.628 855.565,546.068C859.283,541.052 861.602,536.249 866.48,532.157L867.485,531.324L874.513,541.244C881.765,540.922 900.708,540.096 905.071,547.008C907.009,550.077 906.133,555.196 908.978,557.218C916.131,555.948 917.94,547.943 922.362,543.023C929.82,541.745 934.677,558.39 941.407,560.54C942.97,561.039 945.335,560.993 947.012,561.186C949.74,563.777 947.048,565.926 950.374,570.291C950.508,575.646 950.739,581.619 947.998,586.374C944.838,588.993 940.384,588.493 936.509,589.39C934.071,589.955 931.945,589.996 930.565,592.368C921.615,607.752 914.92,602.712 906.715,615.179L905.889,616.445L897.15,612.215C895.832,609.986 894.444,607.764 892.59,605.933C886.872,600.287 875.835,602.058 868.462,602.298C867.917,598.73 866.866,595.195 868.472,591.812C871.078,589.333 875.037,589.198 878.468,588.603L882.642,573.753L887.286,561.907C882.064,558.504 876.964,555.601 871.278,553.043C868.065,554.402 859.667,555.933 857.581,558.023C854.815,560.795 859.078,568.189 858.842,572.057C858.686,574.627 857.266,575.909 855.478,577.516C852.801,578.348 851.203,577.549 848.635,576.587C847.251,576.069 847.225,576.292 845.864,576.663C846.546,579.425 847.118,581.742 846.906,584.596C844.183,586.901 841.223,586.067 837.719,586.324C834.752,590.542 829.494,598.708 824.796,600.759C822.072,601.948 817.79,602.71 814.968,601.473C813.265,600.727 813.142,600.33 812.505,598.72C813.774,597.211 815.063,595.556 816.508,594.216C818.443,592.422 819.578,592.119 822.141,592.175C823.002,593.196 823.832,594.2 824.602,595.294C824.798,595.571 824.986,595.852 825.177,596.132C825.541,595.65 826.133,594.923 826.337,594.366C828.495,588.473 818.688,590.071 817.215,586.675C816.024,583.928 817.892,578.698 815.199,576.37C813.086,574.543 811.197,575.026 809.504,572.354C812.282,569.79 814.79,568.652 816.17,565.032L815.158,562.826C812.961,561.484 810.441,560.383 809.262,557.99L810.165,556.592C811.206,556.317 812.449,555.903 813.548,555.888C817.599,555.831 819.887,559.277 822.583,561.87C823.907,560.946 825.241,560.036 826.585,559.14C829.675,557.088 832.411,555.21 836.19,555.958C836.936,557.59 837.27,558.576 837.01,560.348C835.884,568.018 826.5,567.21 821.795,570.861C823.423,571.185 825.058,571.473 826.699,571.728C829.405,572.124 832.221,572.103 834.397,570.271C837.412,567.733 840.363,562.485 840.695,558.531C841.269,551.715 835.525,553.782 832.563,550.073C834.234,547.694 835.766,545.401 837.087,542.808L836.399,541.362C834.095,540.831 831.774,540.37 829.441,539.981L829.356,538.641C834.368,533.055 841.6,528.182 847.861,524.043C851.206,521.832 853.881,519.67 858.05,520.625C858.309,520.684 859.7,521.059 860.003,521.059C863.321,521.062 866.165,517.602 868.586,515.565Z" style="fill:rgb(254,254,254);fill-rule:nonzero;"/>
    </g>
    <g transform="matrix(0.5625,0,0,0.562461,0,0)">
        <path d="M455.964,1022.77C461.383,1025.09 465.108,1029.26 470.045,1032.36C478.019,1033.07 477.909,1026.89 483.805,1023.91C485.564,1023.03 486.169,1023.61 487.838,1024.3C489.868,1028.64 486.097,1034.15 487.83,1038.92C491.163,1048.1 499.301,1041.95 504.813,1044.57C506.153,1047.07 506.314,1047.47 506.153,1050.47C501.335,1059.84 489.163,1062.33 481.021,1067.86C472.457,1073.68 472.923,1080.28 458.783,1088.01C453.768,1088.61 449.893,1085.98 445.048,1085.41C439.7,1084.78 434.727,1087.7 429.649,1088.78C423.01,1090.19 421.246,1088.65 412.973,1091.71L412.3,1090.68C414.079,1084.52 417.618,1078.8 420.632,1073.17L412.937,1064.42C421.719,1057.27 428.295,1052.98 439.601,1051.22C443.098,1050.67 447.177,1050.34 450.491,1049.05C452.925,1048.1 453.361,1047.06 454.335,1044.76C454.311,1040.75 452.379,1037.66 450.615,1034.17L455.964,1022.77Z" style="fill:rgb(254,254,254);fill-rule:nonzero;"/>
    </g>
    <g transform="matrix(0.5625,0,0,0.562461,0,0)">
        <path d="M1074.75,660.068C1080.11,662.563 1084.68,666.782 1090.12,669.154C1096.77,672.053 1106.12,665.923 1112.55,663.712C1112.79,663.806 1113.03,663.896 1113.27,663.993L1114.47,664.488C1116.35,665.255 1118.36,665.985 1120.11,667.038C1124.89,669.921 1124.42,675.766 1126.1,680.374C1127.78,684.992 1146.64,687.606 1151.98,689.533C1150.04,694.808 1147.91,699.423 1144.97,704.224C1142.67,707.227 1140.03,709.96 1137.47,712.746C1126.98,713.77 1116.76,716.724 1106.21,713.414C1102.81,712.347 1101.25,711.035 1099.56,707.919C1093.19,696.15 1084.97,705.431 1078.01,698.829C1077.45,687.463 1073.2,670.13 1074.75,660.068Z" style="fill:rgb(254,254,254);fill-rule:nonzero;"/>
    </g>
    <g transform="matrix(0.5625,0,0,0.562461,0,0)">
        <path d="M1334.81,600.243C1345.68,603.263 1357.12,611.863 1367.26,617.191C1369.36,620.515 1369.81,624.247 1369.12,628.104C1367.04,639.607 1359.69,645.621 1350.47,651.684C1347.44,653.759 1344.27,655.6 1340.52,655.797C1336.78,655.993 1333.67,654.318 1331.12,651.653C1324.41,644.652 1320.95,630.074 1325.42,621.413C1327.53,617.333 1331.85,613.999 1333.56,609.848C1334.7,607.099 1334.64,603.208 1334.81,600.243Z" style="fill:rgb(254,254,254);fill-rule:nonzero;"/>
    </g>
    <g transform="matrix(0.5625,0,0,0.562461,0,0)">
        <path d="M657.642,789.684C658.711,790.383 659.394,791.072 660.256,792.032C663.247,795.363 665.341,797.64 665.008,802.35C664.89,804.012 664.741,804.878 665.465,806.454C667.063,806.753 668.661,807.005 670.269,807.241L670.721,809.246C665.093,819.704 670.267,825.743 667.54,834.047C665.728,839.564 652.797,834.108 647.225,837.468C647.025,837.588 646.83,837.718 646.633,837.843C637.229,835.033 632.559,826.587 626.481,819.331C636.39,809.089 646.295,798.346 657.642,789.684Z" style="fill:rgb(254,254,254);fill-rule:nonzero;"/>
    </g>
    <g transform="matrix(0.5625,0,0,0.562461,0,0)">
        <path d="M694.328,760.113C696.746,759.859 699.624,759.694 702.022,760.059C704.647,760.459 705.481,761.43 706.867,763.535C706.987,773.25 716.107,788.185 713.88,793.8C712.204,794.256 710.447,794.58 709.072,795.701C707.932,796.63 708.364,804.21 708.252,806.251C706.381,805.83 704.913,802.743 703.819,801.067C701.065,796.849 697.444,796.751 694.459,793.396C689.875,788.246 689.282,782.117 683.335,777.428C683.045,777.198 682.748,776.977 682.455,776.751C681.576,775.962 680.755,775.624 679.693,775.129C678.366,777.326 689.338,789.971 689.515,795.182C688.04,795.767 686.586,796.369 685.14,797.023L684.549,799.307L683.573,799.599C676.713,795.811 671.515,787.988 666.966,781.8C676.354,772.361 681.978,765.679 694.328,760.113Z" style="fill:rgb(254,254,254);fill-rule:nonzero;"/>
    </g>
    <g transform="matrix(0.5625,0,0,0.562461,0,0)">
        <path d="M1158.37,476.38L1159.75,476.104C1166.19,480.748 1172.57,480.176 1179.46,486.292C1176.52,489.009 1173.31,491.274 1170.05,493.596C1166.57,494.341 1162.51,495.503 1159.04,494.198C1155.31,492.793 1148.71,487.923 1147.41,484.076C1146.59,481.651 1147.18,480.484 1148.16,478.239L1158.37,476.38Z" style="fill:rgb(254,254,254);fill-rule:nonzero;"/>
    </g>
    <g transform="matrix(0.5625,0,0,0.562461,0,0)">
        <path d="M463.86,1008.13C465.097,1008 466.331,1007.93 467.568,1007.83C468.899,1007.71 470.185,1007.54 471.499,1007.94C474.397,1008.84 483.64,1012.83 485.083,1015.12C483.651,1019.51 479.521,1023.8 476.671,1027.48C476.013,1028 474.772,1028.47 474.006,1028.84C468.314,1027.44 462.675,1023.64 457.536,1020.8L463.86,1008.13Z" style="fill:rgb(254,254,254);fill-rule:nonzero;"/>
    </g>
    <g transform="matrix(0.5625,0,0,0.562461,0,0)">
        <path d="M1372.88,535.41C1376.27,536.443 1379.03,539.271 1381.73,541.504C1376.35,544.905 1371.7,549.28 1366.95,553.487C1364.25,554.493 1363.49,555.213 1360.68,554.319L1360.33,552.096C1362.71,545.424 1368,540.335 1372.88,535.41Z" style="fill:rgb(254,254,254);fill-rule:nonzero;"/>
    </g>
    <g transform="matrix(0.5625,0,0,0.562461,0,0)">
        <path d="M1388.13,579.587C1390.82,580.171 1392.82,580.449 1394.85,582.411L1394.83,584.277C1392.68,587.644 1389.34,589.618 1386.13,591.883C1383.32,591.816 1382.31,592.078 1379.93,590.468L1380.05,588.182C1382.2,584.635 1385.05,582.287 1388.13,579.587Z" style="fill:rgb(254,254,254);fill-rule:nonzero;"/>
    </g>
    <g transform="matrix(0.5625,0,0,0.562461,0,0)">
        <path d="M805.988,577.26C806.826,577.171 807.629,577.04 808.48,577.174C810.862,577.547 811.955,578.933 813.326,580.679C813.578,583.42 813.562,583.513 812.094,585.84L806.909,586.772C804.22,587.031 803.778,586.943 801.327,585.802C799.593,583.297 799.602,583.259 799.831,580.217C801.758,577.615 802.899,577.921 805.988,577.26Z" style="fill:rgb(254,254,254);fill-rule:nonzero;"/>
    </g>
    <g transform="matrix(0.5625,0,0,0.562461,0,0)">
        <path d="M652.74,846.786C655.408,847.457 656.854,847.97 658.371,850.251C657.833,853.387 655.575,854.891 653.307,856.908C651.513,856.987 650.029,856.72 648.277,856.39L647.056,854.54C647.889,851.145 650.353,849.181 652.74,846.786Z" style="fill:rgb(254,254,254);fill-rule:nonzero;"/>
    </g>
</svg>
